<svg width="21" height="20" viewBox="0 0 21 20" fill="none" xmlns="http://www.w3.org/2000/svg">
<path d="M3 3.33334H3.50526C4.35578 3.33334 5.06986 3.97376 5.1621 4.81926L5.8379 11.0141C5.93014 11.8596 6.64422 12.5 7.49474 12.5H14.705C15.4669 12.5 16.1317 11.9834 16.32 11.2452L17.4699 6.73593C17.7387 5.68213 16.9425 4.65742 15.855 4.65742H6M6.02063 15.5208H6.64563M6.02063 16.1458H6.64563M15.1873 15.5208H15.8123M15.1873 16.1458H15.8123M7.16667 15.8333C7.16667 16.2936 6.79357 16.6667 6.33333 16.6667C5.8731 16.6667 5.5 16.2936 5.5 15.8333C5.5 15.3731 5.8731 15 6.33333 15C6.79357 15 7.16667 15.3731 7.16667 15.8333ZM16.3333 15.8333C16.3333 16.2936 15.9602 16.6667 15.5 16.6667C15.0398 16.6667 14.6667 16.2936 14.6667 15.8333C14.6667 15.3731 15.0398 15 15.5 15C15.9602 15 16.3333 15.3731 16.3333 15.8333Z" stroke="white" stroke-width="1.5" stroke-linecap="round"/>
</svg>
